<svg width="73" height="72" viewBox="0 0 73 72" fill="none" xmlns="http://www.w3.org/2000/svg">
<g id="&#208;&#149;&#208;&#189;&#208;&#181;&#209;&#128;&#208;&#179;&#208;&#190;&#208;&#191;&#208;&#190;&#209;&#129;&#209;&#130;&#208;&#176;&#209;&#135;&#208;&#176;&#208;&#189;&#208;&#189;&#209;&#143;">
<rect id="Rectangle 1249" x="1" y="0.5" width="71" height="71" rx="5.5" fill="white" stroke="#E7E7E7"/>
<g id="Group 22">
<path id="Union" d="M28.5 44.882C28.5 41.7637 26.7607 38.9715 24.9632 36.4233C23.4096 34.2207 22.5 31.5513 22.5 28.6744C22.5 21.1222 28.768 15 36.5 15C44.232 15 50.5 21.1222 50.5 28.6744C50.5 31.5513 49.5904 34.2207 48.0368 36.4233C46.2393 38.9714 44.5 41.7637 44.5 44.882C44.5 46.7195 43.0104 48.2092 41.1728 48.2092H31.8272C29.9896 48.2092 28.5 46.7195 28.5 44.882Z" fill="url(#paint0_linear_630_4383)"/>
<rect id="Rectangle 76" x="30.7442" y="50.4071" width="11.5116" height="0.48837" rx="0.244185" fill="#FEEFBC" stroke="#F7C30B" stroke-width="0.48837"/>
<rect id="Rectangle 77" x="30.7442" y="53.3371" width="11.5116" height="0.48837" rx="0.244185" fill="#FEEFBC" stroke="#F7C30B" stroke-width="0.48837"/>
<rect id="Rectangle 78" x="32.7442" y="56.2675" width="7.51163" height="0.48837" rx="0.244185" fill="#FEEFBC" stroke="#F7C30B" stroke-width="0.48837"/>
<path id="Vector 22" d="M26 27.2097C26.5 24.9306 28.8 19.9818 34 18.419" stroke="white" stroke-linecap="round"/>
</g>
</g>
<defs>
<linearGradient id="paint0_linear_630_4383" x1="33.789" y1="17.7741" x2="44.3263" y2="74.6062" gradientUnits="userSpaceOnUse">
<stop stop-color="#FD7900"/>
<stop offset="1" stop-color="#FDC500" stop-opacity="0"/>
</linearGradient>
</defs>
</svg>
