<svg width="72" height="72" viewBox="0 0 72 72" fill="none" xmlns="http://www.w3.org/2000/svg">
<g id="&#208;&#147;&#208;&#176;&#208;&#183;&#208;&#190;&#208;&#191;&#208;&#190;&#209;&#129;&#209;&#130;&#208;&#176;&#209;&#135;&#208;&#176;&#208;&#189;&#208;&#189;&#209;&#143;">
<rect id="Rectangle 1248" x="0.5" y="0.5" width="71" height="71" rx="5.5" fill="white" stroke="#E7E7E7"/>
<g id="Group 18">
<path id="Ellipse 26" d="M51.0037 42.06C51.0037 50.2556 44.0633 56.8994 35.5018 56.8994C26.9404 56.8994 20 50.2556 20 42.06C20 28.9665 35.5018 31.5852 35.5018 15C48.268 23.729 51.0037 33.8645 51.0037 42.06Z" fill="url(#paint0_linear_630_4376)"/>
<path id="Union" d="M34.5027 56.9199C38.9868 57.5527 43.1912 54.3685 43.8936 49.8078C44.5959 45.2471 44.0317 39.4047 38.0935 33.6035C37.6213 36.6699 37.3257 39.0045 35.0461 42.0597C34.5901 40.3139 32.5947 38.2167 31.0549 37.6153C31.8879 40.5913 29.119 43.0204 28.0546 45.928C27.8817 46.4002 27.7463 46.9257 27.6554 47.5162C27.4658 48.7468 27.5507 49.9519 27.8637 51.0681C27.8845 51.1535 27.9071 51.2402 27.9317 51.328C28.2616 52.5066 28.8748 53.5353 29.6747 54.3569C30.893 55.7054 32.5655 56.6465 34.5027 56.9199Z" fill="white"/>
</g>
</g>
<defs>
<linearGradient id="paint0_linear_630_4376" x1="32.5" y1="18.5" x2="47.5" y2="89.5" gradientUnits="userSpaceOnUse">
<stop stop-color="#FD7900"/>
<stop offset="1" stop-color="#FDC500" stop-opacity="0"/>
</linearGradient>
</defs>
</svg>
