<svg width="43" height="43" viewBox="0 0 43 43" fill="none" xmlns="http://www.w3.org/2000/svg">
<g id="fi_213793">
<path id="Vector" d="M42.2182 10.5546H40.6546V8.98944C40.6546 7.26625 39.252 5.86371 37.5273 5.86371C35.8026 5.86371 34.4001 7.26625 34.4001 8.98944V10.5546H32.8365V8.98944C32.8365 7.26625 31.4339 5.86371 29.7092 5.86371C27.9845 5.86371 26.582 7.26625 26.582 8.98944V10.5546H25.0184V8.98944C25.0184 7.26625 23.6158 5.86371 21.8911 5.86371C20.1664 5.86371 18.7639 7.26625 18.7639 8.98944V10.5546H17.2V8.98944C17.2 7.26625 15.7975 5.86371 14.0728 5.86371C12.3481 5.86371 10.9455 7.26625 10.9455 8.98944V10.5546H9.38189V8.98944C9.38189 7.26625 7.97936 5.86371 6.25465 5.86371C4.52995 5.86371 3.12741 7.26625 3.12741 8.98944V10.5546H1.56362V9.77276H0V11.3364V16.0273V17.591H1.56362V16.8091H3.12724V34.0106C3.12724 35.7338 4.52978 37.1364 6.25448 37.1364C7.97919 37.1364 9.38173 35.7338 9.38173 34.0106V33.2273H10.9453V34.0106C10.9453 35.7338 12.3479 37.1364 14.0726 37.1364C15.7973 37.1364 17.1998 35.7338 17.1998 34.0106V33.2273H18.7635V34.0106C18.7635 35.7338 20.166 37.1364 21.8907 37.1364C23.6154 37.1364 25.0179 35.7338 25.0179 34.0106V33.2273H26.5816V34.0106C26.5816 35.7338 27.9841 37.1364 29.7088 37.1364C31.4335 37.1364 32.836 35.7338 32.836 34.0106V33.2273H34.4V34.0106C34.4 35.7338 35.8025 37.1364 37.5272 37.1364C39.2519 37.1364 40.6545 35.7338 40.6545 34.0106V16.8091H42.2181C42.6502 16.8091 42.9999 16.4593 42.9999 16.0272V11.3363C43 10.9042 42.6503 10.5546 42.2182 10.5546Z" fill="url(#paint0_linear_633_4505)"/>
<g id="Group">
<path id="Vector_2" d="M34.4 12.1182H32.8364V15.2454H34.4V12.1182Z" fill="url(#paint1_linear_633_4505)"/>
<path id="Vector_3" d="M26.5817 12.1182H25.0181V15.2454H26.5817V12.1182Z" fill="url(#paint2_linear_633_4505)"/>
<path id="Vector_4" d="M18.7633 12.1182H17.1997V15.2454H18.7633V12.1182Z" fill="url(#paint3_linear_633_4505)"/>
<path id="Vector_5" d="M10.9455 12.1182H9.38184V15.2454H10.9455V12.1182Z" fill="url(#paint4_linear_633_4505)"/>
<path id="Vector_6" d="M3.1271 12.1182H1.56348V15.2454H3.1271V12.1182Z" fill="url(#paint5_linear_633_4505)"/>
<path id="Vector_7" d="M7.81816 34.0107C7.81816 34.8719 7.11655 35.5728 6.25454 35.5728C5.39252 35.5728 4.69092 34.8719 4.69092 34.0107V16.0272V11.3363V8.98936C4.69092 8.1281 5.39252 7.42725 6.25454 7.42725C7.11655 7.42725 7.81816 8.1281 7.81816 8.98936V11.3363V16.0272V31.6636V33.2272V34.0107Z" fill="url(#paint6_linear_633_4505)"/>
</g>
<path id="Vector_8" d="M10.9455 16.8091H9.38184V31.6637H10.9455V16.8091Z" fill="white"/>
<path id="Vector_9" d="M15.6365 34.0107C15.6365 34.8719 14.9349 35.5728 14.0729 35.5728C13.2109 35.5728 12.5093 34.8719 12.5093 34.0107V16.0272V11.3363V8.98936C12.5093 8.1281 13.2109 7.42725 14.0729 7.42725C14.9349 7.42725 15.6365 8.1281 15.6365 8.98936V11.3363V16.0272V34.0107Z" fill="url(#paint7_linear_633_4505)"/>
<path id="Vector_10" d="M18.7638 16.8091H17.2002V31.6637H18.7638V16.8091Z" fill="white"/>
<path id="Vector_11" d="M23.4544 34.0107C23.4544 34.8718 22.7528 35.5728 21.8908 35.5728C21.0288 35.5728 20.3271 34.8719 20.3271 34.0107V33.2273V31.6637V16.0272V11.3363V8.98936C20.3271 8.1281 21.0288 7.42725 21.8908 7.42725C22.7528 7.42725 23.4544 8.1281 23.4544 8.98936V11.3363V16.0272V31.6636V33.2272V34.0107Z" fill="url(#paint8_linear_633_4505)"/>
<path id="Vector_12" d="M26.5817 16.8091H25.0181V31.6637H26.5817V16.8091Z" fill="white"/>
<path id="Vector_13" d="M31.2728 34.0107C31.2728 34.8718 30.5711 35.5728 29.7091 35.5728C28.8471 35.5728 28.1455 34.8719 28.1455 34.0107V16.0272V11.3363V8.98936C28.1455 8.1281 28.8471 7.42725 29.7091 7.42725C30.5711 7.42725 31.2728 8.1281 31.2728 8.98936V11.3363V16.0272V31.6636V33.2272V34.0107Z" fill="url(#paint9_linear_633_4505)"/>
<path id="Vector_14" d="M34.4 16.8091H32.8364V31.6637H34.4V16.8091Z" fill="white"/>
<g id="Group_2">
<path id="Vector_15" d="M39.0911 34.0107C39.0911 34.8718 38.3895 35.5728 37.5275 35.5728C36.6655 35.5728 35.9639 34.8719 35.9639 34.0107V16.0272V11.3363V8.98936C35.9639 8.1281 36.6655 7.42725 37.5275 7.42725C38.3895 7.42725 39.0911 8.1281 39.0911 8.98936V11.3363V16.0272V34.0107Z" fill="url(#paint10_linear_633_4505)"/>
<path id="Vector_16" d="M41.4366 12.1182H40.6548V15.2454H41.4366V12.1182Z" fill="url(#paint11_linear_633_4505)"/>
</g>
</g>
<defs>
<linearGradient id="paint0_linear_633_4505" x1="17.3366" y1="8.47602" x2="23.5501" y2="63.1275" gradientUnits="userSpaceOnUse">
<stop stop-color="#FD7900"/>
<stop offset="1" stop-color="#FDC500" stop-opacity="0"/>
</linearGradient>
<linearGradient id="paint1_linear_633_4505" x1="33.4668" y1="12.3794" x2="35.0435" y2="17.4222" gradientUnits="userSpaceOnUse">
<stop stop-color="white"/>
<stop offset="1" stop-color="#FDC500" stop-opacity="0"/>
</linearGradient>
<linearGradient id="paint2_linear_633_4505" x1="25.6485" y1="12.3794" x2="27.2251" y2="17.4222" gradientUnits="userSpaceOnUse">
<stop stop-color="white"/>
<stop offset="1" stop-color="#FDC500" stop-opacity="0"/>
</linearGradient>
<linearGradient id="paint3_linear_633_4505" x1="17.8301" y1="12.3794" x2="19.4068" y2="17.4222" gradientUnits="userSpaceOnUse">
<stop stop-color="white"/>
<stop offset="1" stop-color="#FDC500" stop-opacity="0"/>
</linearGradient>
<linearGradient id="paint4_linear_633_4505" x1="10.0123" y1="12.3794" x2="11.5889" y2="17.4222" gradientUnits="userSpaceOnUse">
<stop stop-color="white"/>
<stop offset="1" stop-color="#FDC500" stop-opacity="0"/>
</linearGradient>
<linearGradient id="paint5_linear_633_4505" x1="2.19389" y1="12.3794" x2="3.77056" y2="17.4222" gradientUnits="userSpaceOnUse">
<stop stop-color="white"/>
<stop offset="1" stop-color="#FDC500" stop-opacity="0"/>
</linearGradient>
<linearGradient id="paint6_linear_633_4505" x1="5.95175" y1="9.77834" x2="29.4782" y2="26.4996" gradientUnits="userSpaceOnUse">
<stop stop-color="white"/>
<stop offset="1" stop-color="#FDC500" stop-opacity="0"/>
</linearGradient>
<linearGradient id="paint7_linear_633_4505" x1="13.7701" y1="9.77834" x2="37.2965" y2="26.4996" gradientUnits="userSpaceOnUse">
<stop stop-color="white"/>
<stop offset="1" stop-color="#FDC500" stop-opacity="0"/>
</linearGradient>
<linearGradient id="paint8_linear_633_4505" x1="21.588" y1="9.77834" x2="45.1144" y2="26.4996" gradientUnits="userSpaceOnUse">
<stop stop-color="white"/>
<stop offset="1" stop-color="#FDC500" stop-opacity="0"/>
</linearGradient>
<linearGradient id="paint9_linear_633_4505" x1="29.4063" y1="9.77834" x2="52.9328" y2="26.4996" gradientUnits="userSpaceOnUse">
<stop stop-color="white"/>
<stop offset="1" stop-color="#FDC500" stop-opacity="0"/>
</linearGradient>
<linearGradient id="paint10_linear_633_4505" x1="37.2247" y1="9.77834" x2="60.7511" y2="26.4996" gradientUnits="userSpaceOnUse">
<stop stop-color="white"/>
<stop offset="1" stop-color="#FDC500" stop-opacity="0"/>
</linearGradient>
<linearGradient id="paint11_linear_633_4505" x1="40.97" y1="12.3794" x2="43.4585" y2="16.359" gradientUnits="userSpaceOnUse">
<stop stop-color="white"/>
<stop offset="1" stop-color="#FDC500" stop-opacity="0"/>
</linearGradient>
</defs>
</svg>
