<svg width="72" height="101" viewBox="0 0 72 72" fill="none" xmlns="http://www.w3.org/2000/svg">
<!--    <rect x="0.5" y="0.5" width="71" height="71" rx="5.5" fill="white" stroke="#FDC500"/>-->
    <path d="M56.2182 25.5546H54.6546V23.9894C54.6546 22.2662 53.252 20.8637 51.5273 20.8637C49.8026 20.8637 48.4001 22.2662 48.4001 23.9894V25.5546H46.8365V23.9894C46.8365 22.2662 45.4339 20.8637 43.7092 20.8637C41.9845 20.8637 40.582 22.2662 40.582 23.9894V25.5546H39.0184V23.9894C39.0184 22.2662 37.6158 20.8637 35.8911 20.8637C34.1664 20.8637 32.7639 22.2662 32.7639 23.9894V25.5546H31.2V23.9894C31.2 22.2662 29.7975 20.8637 28.0728 20.8637C26.3481 20.8637 24.9455 22.2662 24.9455 23.9894V25.5546H23.3819V23.9894C23.3819 22.2662 21.9794 20.8637 20.2547 20.8637C18.5299 20.8637 17.1274 22.2662 17.1274 23.9894V25.5546H15.5636V24.7728H14V26.3364V31.0273V32.591H15.5636V31.8091H17.1272V49.0106C17.1272 50.7338 18.5298 52.1364 20.2545 52.1364C21.9792 52.1364 23.3817 50.7338 23.3817 49.0106V48.2273H24.9453V49.0106C24.9453 50.7338 26.3479 52.1364 28.0726 52.1364C29.7973 52.1364 31.1998 50.7338 31.1998 49.0106V48.2273H32.7635V49.0106C32.7635 50.7338 34.166 52.1364 35.8907 52.1364C37.6154 52.1364 39.0179 50.7338 39.0179 49.0106V48.2273H40.5816V49.0106C40.5816 50.7338 41.9841 52.1364 43.7088 52.1364C45.4335 52.1364 46.836 50.7338 46.836 49.0106V48.2273H48.4V49.0106C48.4 50.7338 49.8025 52.1364 51.5272 52.1364C53.2519 52.1364 54.6545 50.7338 54.6545 49.0106V31.8091H56.2181C56.6502 31.8091 56.9999 31.4593 56.9999 31.0272V26.3363C57 25.9042 56.6503 25.5546 56.2182 25.5546Z" fill="url(#paint0_linear_675_5822)"/>
    <path d="M48.3996 27.1182H46.8359V30.2454H48.3996V27.1182Z" fill="url(#paint1_linear_675_5822)"/>
    <path d="M40.5812 27.1182H39.0176V30.2454H40.5812V27.1182Z" fill="url(#paint2_linear_675_5822)"/>
    <path d="M32.7638 27.1182H31.2002V30.2454H32.7638V27.1182Z" fill="url(#paint3_linear_675_5822)"/>
    <path d="M24.9455 27.1182H23.3818V30.2454H24.9455V27.1182Z" fill="url(#paint4_linear_675_5822)"/>
    <path d="M17.1271 27.1182H15.5635V30.2454H17.1271V27.1182Z" fill="url(#paint5_linear_675_5822)"/>
    <path d="M21.8177 49.0107C21.8177 49.8719 21.1161 50.5728 20.2541 50.5728C19.392 50.5728 18.6904 49.8719 18.6904 49.0107V31.0272V26.3363V23.9894C18.6904 23.1281 19.392 22.4272 20.2541 22.4272C21.1161 22.4272 21.8177 23.1281 21.8177 23.9894V26.3363V31.0272V46.6636V48.2272V49.0107Z" fill="url(#paint6_linear_675_5822)"/>
    <path d="M24.9455 31.8091H23.3818V46.6637H24.9455V31.8091Z" fill="white"/>
    <path d="M29.636 49.0107C29.636 49.8719 28.9344 50.5728 28.0724 50.5728C27.2104 50.5728 26.5088 49.8719 26.5088 49.0107V31.0272V26.3363V23.9894C26.5088 23.1281 27.2104 22.4272 28.0724 22.4272C28.9344 22.4272 29.636 23.1281 29.636 23.9894V26.3363V31.0272V49.0107Z" fill="url(#paint7_linear_675_5822)"/>
    <path d="M32.7638 31.8091H31.2002V46.6637H32.7638V31.8091Z" fill="white"/>
    <path d="M37.4544 49.0107C37.4544 49.8718 36.7528 50.5728 35.8908 50.5728C35.0288 50.5728 34.3271 49.8719 34.3271 49.0107V48.2273V46.6637V31.0272V26.3363V23.9894C34.3271 23.1281 35.0288 22.4272 35.8908 22.4272C36.7528 22.4272 37.4544 23.1281 37.4544 23.9894V26.3363V31.0272V46.6636V48.2272V49.0107Z" fill="url(#paint8_linear_675_5822)"/>
    <path d="M40.5822 31.8091H39.0186V46.6637H40.5822V31.8091Z" fill="white"/>
    <path d="M45.2728 49.0107C45.2728 49.8718 44.5711 50.5728 43.7091 50.5728C42.8471 50.5728 42.1455 49.8719 42.1455 49.0107V31.0272V26.3363V23.9894C42.1455 23.1281 42.8471 22.4272 43.7091 22.4272C44.5711 22.4272 45.2728 23.1281 45.2728 23.9894V26.3363V31.0272V46.6636V48.2272V49.0107Z" fill="url(#paint9_linear_675_5822)"/>
    <path d="M48.3996 31.8091H46.8359V46.6637H48.3996V31.8091Z" fill="white"/>
    <path d="M53.0911 49.0107C53.0911 49.8718 52.3895 50.5728 51.5275 50.5728C50.6655 50.5728 49.9639 49.8719 49.9639 49.0107V31.0272V26.3363V23.9894C49.9639 23.1281 50.6655 22.4272 51.5275 22.4272C52.3895 22.4272 53.0911 23.1281 53.0911 23.9894V26.3363V31.0272V49.0107Z" fill="url(#paint10_linear_675_5822)"/>
    <path d="M55.4361 27.1182H54.6543V30.2454H55.4361V27.1182Z" fill="url(#paint11_linear_675_5822)"/>
<!--    <path d="M17.976 94V85.208H14.686V84.2H22.386V85.208H19.096V94H17.976ZM27.4461 94.168C26.4288 94.168 25.5701 93.818 24.8701 93.118C24.1795 92.4087 23.8341 91.4987 23.8341 90.388C23.8341 89.3333 24.1655 88.442 24.8281 87.714C25.4908 86.9767 26.3168 86.608 27.3061 86.608C28.3421 86.608 29.1635 86.972 29.7701 87.7C30.3768 88.428 30.6801 89.3427 30.6801 90.444C30.6801 90.584 30.6755 90.71 30.6661 90.822H24.9261C25.0008 91.5593 25.2761 92.1473 25.7521 92.586C26.2375 93.0153 26.8115 93.23 27.4741 93.23C28.3421 93.23 29.1028 92.8893 29.7561 92.208L30.4281 92.81C29.6161 93.7153 28.6221 94.168 27.4461 94.168ZM24.9261 89.954H29.5881C29.5228 89.254 29.2895 88.6753 28.8881 88.218C28.4961 87.7513 27.9595 87.518 27.2781 87.518C26.6621 87.518 26.1348 87.7467 25.6961 88.204C25.2575 88.6613 25.0008 89.2447 24.9261 89.954ZM32.5673 94V86.762H38.8393V94H37.7613V87.714H33.6453V94H32.5673ZM40.8989 94.112C40.6189 94.112 40.3296 94.0747 40.0309 94L40.1569 93.076C40.3716 93.1413 40.5443 93.174 40.6749 93.174C40.8803 93.174 41.0483 93.1507 41.1789 93.104C41.3096 93.048 41.4496 92.9127 41.5989 92.698C41.7576 92.474 41.8789 92.1613 41.9629 91.76C42.0469 91.3587 42.1169 90.7893 42.1729 90.052C42.2383 89.3147 42.2709 88.4187 42.2709 87.364V86.762H47.3949V94H46.3169V87.714H43.2929V87.882C43.2929 88.9833 43.2509 89.9213 43.1669 90.696C43.0829 91.4707 42.9756 92.0773 42.8449 92.516C42.7236 92.9547 42.5509 93.2953 42.3269 93.538C42.1029 93.7807 41.8836 93.9347 41.6689 94C41.4636 94.0747 41.2069 94.112 40.8989 94.112ZM55.8135 93.062C55.0855 93.7993 54.1848 94.168 53.1115 94.168C52.0382 94.168 51.1422 93.7993 50.4235 93.062C49.7142 92.3247 49.3595 91.4333 49.3595 90.388C49.3595 89.352 49.7188 88.4653 50.4375 87.728C51.1655 86.9813 52.0662 86.608 53.1395 86.608C54.2128 86.608 55.1088 86.9767 55.8275 87.714C56.5462 88.4513 56.9055 89.3427 56.9055 90.388C56.9055 91.424 56.5415 92.3153 55.8135 93.062ZM53.1395 93.202C53.9142 93.202 54.5488 92.9313 55.0435 92.39C55.5475 91.8487 55.7995 91.1813 55.7995 90.388C55.7995 89.604 55.5382 88.9367 55.0155 88.386C54.5022 87.8353 53.8675 87.56 53.1115 87.56C52.3368 87.56 51.7022 87.8353 51.2075 88.386C50.7128 88.9273 50.4655 89.5947 50.4655 90.388C50.4655 91.172 50.7222 91.8393 51.2355 92.39C51.7488 92.9313 52.3835 93.202 53.1395 93.202Z" fill="#2A3744"/>-->
    <defs>
        <linearGradient id="paint0_linear_675_5822" x1="31.3366" y1="23.476" x2="37.5501" y2="78.1275" gradientUnits="userSpaceOnUse">
            <stop stop-color="#FD7900"/>
            <stop offset="1" stop-color="#FDC500" stop-opacity="0"/>
        </linearGradient>
        <linearGradient id="paint1_linear_675_5822" x1="47.4664" y1="27.3794" x2="49.043" y2="32.4222" gradientUnits="userSpaceOnUse">
            <stop stop-color="white"/>
            <stop offset="1" stop-color="#FDC500" stop-opacity="0"/>
        </linearGradient>
        <linearGradient id="paint2_linear_675_5822" x1="39.648" y1="27.3794" x2="41.2247" y2="32.4222" gradientUnits="userSpaceOnUse">
            <stop stop-color="white"/>
            <stop offset="1" stop-color="#FDC500" stop-opacity="0"/>
        </linearGradient>
        <linearGradient id="paint3_linear_675_5822" x1="31.8306" y1="27.3794" x2="33.4073" y2="32.4222" gradientUnits="userSpaceOnUse">
            <stop stop-color="white"/>
            <stop offset="1" stop-color="#FDC500" stop-opacity="0"/>
        </linearGradient>
        <linearGradient id="paint4_linear_675_5822" x1="24.0123" y1="27.3794" x2="25.5889" y2="32.4222" gradientUnits="userSpaceOnUse">
            <stop stop-color="white"/>
            <stop offset="1" stop-color="#FDC500" stop-opacity="0"/>
        </linearGradient>
        <linearGradient id="paint5_linear_675_5822" x1="16.1939" y1="27.3794" x2="17.7706" y2="32.4222" gradientUnits="userSpaceOnUse">
            <stop stop-color="white"/>
            <stop offset="1" stop-color="#FDC500" stop-opacity="0"/>
        </linearGradient>
        <linearGradient id="paint6_linear_675_5822" x1="19.9513" y1="24.7783" x2="43.4777" y2="41.4996" gradientUnits="userSpaceOnUse">
            <stop stop-color="white"/>
            <stop offset="1" stop-color="#FDC500" stop-opacity="0"/>
        </linearGradient>
        <linearGradient id="paint7_linear_675_5822" x1="27.7696" y1="24.7783" x2="51.296" y2="41.4996" gradientUnits="userSpaceOnUse">
            <stop stop-color="white"/>
            <stop offset="1" stop-color="#FDC500" stop-opacity="0"/>
        </linearGradient>
        <linearGradient id="paint8_linear_675_5822" x1="35.588" y1="24.7783" x2="59.1144" y2="41.4996" gradientUnits="userSpaceOnUse">
            <stop stop-color="white"/>
            <stop offset="1" stop-color="#FDC500" stop-opacity="0"/>
        </linearGradient>
        <linearGradient id="paint9_linear_675_5822" x1="43.4063" y1="24.7783" x2="66.9328" y2="41.4996" gradientUnits="userSpaceOnUse">
            <stop stop-color="white"/>
            <stop offset="1" stop-color="#FDC500" stop-opacity="0"/>
        </linearGradient>
        <linearGradient id="paint10_linear_675_5822" x1="51.2247" y1="24.7783" x2="74.7511" y2="41.4996" gradientUnits="userSpaceOnUse">
            <stop stop-color="white"/>
            <stop offset="1" stop-color="#FDC500" stop-opacity="0"/>
        </linearGradient>
        <linearGradient id="paint11_linear_675_5822" x1="54.9695" y1="27.3794" x2="57.458" y2="31.359" gradientUnits="userSpaceOnUse">
            <stop stop-color="white"/>
            <stop offset="1" stop-color="#FDC500" stop-opacity="0"/>
        </linearGradient>
    </defs>
</svg>
