<svg width="18" height="14" viewBox="0 0 18 14" fill="none" xmlns="http://www.w3.org/2000/svg">
<g id="Group">
<path id="Vector (Stroke)" fill-rule="evenodd" clip-rule="evenodd" d="M16.0204 0.190673C16.2746 0.444904 16.2746 0.857094 16.0204 1.11133L13.7702 3.36149C13.7512 3.38324 13.7309 3.40346 13.7096 3.42211L11.4298 5.70187C11.4083 5.7319 11.3839 5.76051 11.3567 5.78731C11.3321 5.81149 11.3061 5.83332 11.2789 5.85281L8.06039 9.07132C8.04139 9.09751 8.02021 9.12261 7.99683 9.14637C7.97091 9.17271 7.94329 9.19638 7.91433 9.21737L5.61436 11.5173C5.60534 11.5269 5.59608 11.5362 5.58659 11.5451L3.32239 13.8093C3.06816 14.0635 2.65597 14.0635 2.40173 13.8093C2.1475 13.5551 2.1475 13.1429 2.40173 12.8887L4.15246 11.1379C2.90567 10.1335 1.92865 8.97973 1.3477 8.2222C1.07675 7.87256 0.929688 7.44277 0.929688 7.00039C0.929688 6.55808 1.07671 6.12834 1.34759 5.77873C1.95783 4.98229 3.00292 3.75261 4.33678 2.7163C5.6642 1.68499 7.3442 0.793625 9.20974 0.793625C10.685 0.793625 12.0425 1.35091 13.1992 2.09118L15.0997 0.190673C15.354 -0.0635578 15.7661 -0.0635578 16.0204 0.190673ZM12.2535 3.03692C11.2979 2.46656 10.2676 2.09562 9.20974 2.09562C7.75635 2.09562 6.3555 2.79667 5.13558 3.74446C3.923 4.68655 2.95477 5.82171 2.37995 6.5721L2.37731 6.57555L2.3773 6.57554C2.28292 6.69706 2.23169 6.84653 2.23169 7.00039C2.23169 7.15425 2.28292 7.30373 2.3773 7.42524L2.37979 7.42846L2.37978 7.42846C2.94804 8.16962 3.8952 9.2804 5.07899 10.2114L6.65467 8.63573C6.55954 8.48819 6.47718 8.33232 6.4087 8.16977C6.25333 7.80093 6.17252 7.40497 6.17094 7.00475C6.16936 6.60452 6.24703 6.20795 6.39948 5.83789C6.55194 5.46783 6.77615 5.13162 7.05918 4.84865C7.34222 4.56568 7.67849 4.34155 8.04858 4.18918C8.41867 4.03682 8.81527 3.95924 9.21549 3.96092C9.61572 3.96259 10.0117 4.04349 10.3805 4.19895C10.5428 4.26738 10.6984 4.34964 10.8458 4.44464L12.2535 3.03692ZM9.88662 5.40379C9.88266 5.40208 9.87869 5.40039 9.87472 5.39872C9.66429 5.31002 9.43839 5.26386 9.21004 5.2629C8.98168 5.26195 8.7554 5.30621 8.54424 5.39315C8.33308 5.48008 8.14122 5.60796 7.97973 5.76941C7.81824 5.93087 7.69031 6.12269 7.60333 6.33384C7.51635 6.54498 7.47203 6.77125 7.47293 6.9996C7.47383 7.22796 7.51994 7.45387 7.60859 7.66432C7.61031 7.66841 7.61206 7.67251 7.61381 7.67659L9.88662 5.40379ZM14.7671 4.1503C15.026 3.90085 15.4382 3.90853 15.6876 4.16745C16.179 4.67751 16.6413 5.21486 17.0723 5.77693C17.3434 6.12652 17.4906 6.55632 17.4908 6.99875C17.491 7.44123 17.3442 7.87121 17.0733 8.22109C16.4631 9.01752 15.418 10.2473 14.084 11.2837C12.7566 12.315 11.0766 13.2064 9.21106 13.2064H9.20809V13.2064C8.60864 13.2036 8.01263 13.1154 7.43808 12.9444C7.09349 12.8418 6.89729 12.4793 6.99986 12.1347C7.10244 11.7901 7.46494 11.5939 7.80953 11.6965C8.26497 11.8321 8.73739 11.9021 9.21256 11.9044C10.6654 11.9039 12.0657 11.203 13.2852 10.2555C14.4978 9.31344 15.466 8.17828 16.0408 7.4279L16.0433 7.42474C16.1377 7.30305 16.1889 7.15339 16.1888 6.99938C16.1887 6.84536 16.1374 6.69576 16.0429 6.57416L16.0402 6.57068L16.0402 6.57067C15.6387 6.04686 15.2079 5.5461 14.75 5.0708C14.5005 4.81187 14.5082 4.39975 14.7671 4.1503Z" fill="#A1A1A1"/>
</g>
</svg>
