<svg width="21" height="20" viewBox="0 0 21 20" fill="none" xmlns="http://www.w3.org/2000/svg">
<g id="google" opacity="0.8" clip-path="url(#clip0_1513_2408)">
<path id="Vector" d="M20.4905 10.1871C20.4905 9.36773 20.4224 8.7698 20.2752 8.14972H10.6992V11.848H16.3201C16.2068 12.7671 15.5948 14.1512 14.2349 15.0813L14.2159 15.2051L17.2436 17.497L17.4534 17.5174C19.3798 15.779 20.4905 13.2211 20.4905 10.1871Z" fill="#4285F4"/>
<path id="Vector_2" d="M10.6973 19.9312C13.451 19.9312 15.7628 19.0453 17.4514 17.5173L14.233 15.0812C13.3717 15.6681 12.2158 16.0777 10.6973 16.0777C8.00016 16.0777 5.71102 14.3393 4.895 11.9365L4.77539 11.9464L1.62711 14.3271L1.58594 14.439C3.26313 17.6944 6.7082 19.9312 10.6973 19.9312Z" fill="#34A853"/>
<path id="Vector_3" d="M4.89695 11.9366C4.68164 11.3166 4.55703 10.6521 4.55703 9.96565C4.55703 9.27908 4.68164 8.61473 4.88562 7.99466L4.87992 7.8626L1.69219 5.44366L1.58789 5.49214C0.896641 6.84305 0.5 8.36008 0.5 9.96565C0.5 11.5712 0.896641 13.0882 1.58789 14.4391L4.89695 11.9366Z" fill="#FBBC05"/>
<path id="Vector_4" d="M10.6973 3.85336C12.6124 3.85336 13.9043 4.66168 14.6409 5.33718L17.5194 2.59107C15.7516 0.985496 13.451 0 10.6973 0C6.7082 0 3.26312 2.23672 1.58594 5.49214L4.88367 7.99466C5.71102 5.59183 8.00016 3.85336 10.6973 3.85336Z" fill="#EB4335"/>
</g>
<defs>
<clipPath id="clip0_1513_2408">
<rect width="20" height="20" fill="white" transform="translate(0.5)"/>
</clipPath>
</defs>
</svg>
