<svg width="41" height="40" viewBox="0 0 41 40" fill="none" xmlns="http://www.w3.org/2000/svg">
<rect width="41" height="40" fill="#F5F5F5"/>
<g id="&#208;&#147;&#208;&#187;&#208;&#176;&#208;&#178;&#208;&#189;&#208;&#176;&#209;&#143;" clip-path="url(#clip0_441_404)">
<rect width="1440" height="3782" transform="translate(-1047 -1117)" fill="#FDFEFF"/>
<g id="Frame 2171">
<g id="Group 26">
<path id="Rectangle 59" d="M9.99365 -7.89645L5.11037 -3.01317C3.54827 -1.45107 3.54827 1.08158 5.11036 2.64368L15.4358 12.9691C16.9979 14.5312 19.5306 14.5312 21.0927 12.9691L25.976 8.08585" stroke="#2A3744" stroke-opacity="0.2"/>
<path id="Rectangle 60" d="M15.4959 11.0676L15.986 11.5577C17.1576 12.7293 19.0571 12.7293 20.2287 11.5577L21.1197 10.6667" stroke="#2A3744" stroke-opacity="0.2" stroke-linecap="round"/>
<path id="Rectangle 61" d="M22.3584 9.42821L22.0529 9.73368" stroke="#2A3744" stroke-opacity="0.2" stroke-linecap="round"/>
<rect id="Rectangle 62" x="10.8228" y="-12.8575" width="28.4458" height="4.22891" rx="1.5" transform="rotate(45 10.8228 -12.8575)" stroke="#2A3744" stroke-opacity="0.2"/>
<path id="Rectangle 64" d="M5.41602 15.3811L2.69834 12.6635L8.84079 6.52101L11.5585 9.23868L5.41602 15.3811Z" stroke="#2A3744" stroke-opacity="0.2"/>
<path id="Rectangle 65" d="M29.744 -4.09997C30.3298 -4.68576 31.2796 -4.68576 31.8653 -4.09997L32.4617 -3.50362C33.0475 -2.91783 33.0475 -1.96808 32.4617 -1.3823L27.3799 3.6995L24.6622 0.981823L29.744 -4.09997Z" stroke="#2A3744" stroke-opacity="0.2"/>
</g>
</g>
<g id="&#208;&#159;&#209;&#128;&#208;&#181;&#208;&#184;&#208;&#188;&#209;&#131;&#209;&#137;&#208;&#181;&#209;&#129;&#209;&#130;&#208;&#178;&#208;&#176;" filter="url(#filter0_d_441_404)">
<rect x="-903" y="-114" width="1152" height="429" rx="8" fill="white" shape-rendering="crispEdges"/>
<g id="Items">
<g id="Frame 20">
<g id="icon - target" clip-path="url(#clip1_441_404)">
<g id="Group">
<path id="Vector" d="M20.5 40C9.5 40 0.5 31 0.5 20C0.5 9 9.5 0 20.5 0C31.5 0 40.5 9 40.5 20C40.5 31 31.5 40 20.5 40ZM20.5 2C10.5 2 2.5 10 2.5 20C2.5 30 10.5 38 20.5 38C30.5 38 38.5 30 38.5 20C38.5 10 30.5 2 20.5 2Z" fill="#2A3744"/>
</g>
<g id="Group_2">
<path id="Vector_2" d="M20.5 33C13.3 33 7.5 27.2 7.5 20C7.5 12.8 13.3 7 20.5 7C27.7 7 33.5 12.8 33.5 20C33.5 27.2 27.7 33 20.5 33ZM20.5 9C14.5 9 9.5 14 9.5 20C9.5 26 14.5 31 20.5 31C26.5 31 31.5 26 31.5 20C31.5 14 26.5 9 20.5 9Z" fill="#2A3744"/>
</g>
<g id="Group_3">
<path id="Vector_3" d="M20.5 26C17.1 26 14.5 23.4 14.5 20C14.5 16.6 17.1 14 20.5 14C23.9 14 26.5 16.6 26.5 20C26.5 23.4 23.9 26 20.5 26ZM20.5 16C18.3 16 16.5 17.8 16.5 20C16.5 22.2 18.3 24 20.5 24C22.7 24 24.5 22.2 24.5 20C24.5 17.8 22.7 16 20.5 16Z" fill="#2A3744"/>
</g>
<g id="Group_4">
<path id="Vector_4" d="M20.4999 21C20.2999 21 19.8999 21 19.6999 20.8C19.2999 20.4 19.2999 19.8 19.6999 19.4L34.6999 4.40001C35.0999 4.00001 35.6999 4.00001 36.0999 4.40001C36.4999 4.80001 36.4999 5.40001 36.0999 5.80001L21.0999 20.8C21.0999 21 20.6999 21 20.4999 21Z" fill="#2A3744"/>
</g>
<g id="Group_5">
<path id="Vector_5" d="M40.5 6H35.5C34.9 6 34.5 5.6 34.5 5V9.53674e-07C34.5 -0.199999 34.7 -0.599999 34.7 -0.799999L41.7 -7.8C42.1 -8 42.5 -8 42.9 -8C43.3 -7.8 43.5 -7.4 43.5 -7V-3H47.5C47.9 -3 48.3 -2.8 48.5 -2.4C48.5 -2 48.5 -1.6 48.3 -1.2L41.3 5.8C41.1 5.8 40.7 6 40.5 6ZM36.5 4H40.1L45.1 -0.999999H42.5C41.9 -0.999999 41.5 -1.4 41.5 -2V-4.6L36.5 0.400001V4Z" fill="#2A3744"/>
</g>
</g>
</g>
</g>
<rect x="-902.5" y="-113.5" width="1151" height="428" rx="7.5" stroke="#EEEEEE" shape-rendering="crispEdges"/>
</g>
</g>
<defs>
<filter id="filter0_d_441_404" x="-913" y="-124" width="1172" height="449" filterUnits="userSpaceOnUse" color-interpolation-filters="sRGB">
<feFlood flood-opacity="0" result="BackgroundImageFix"/>
<feColorMatrix in="SourceAlpha" type="matrix" values="0 0 0 0 0 0 0 0 0 0 0 0 0 0 0 0 0 0 127 0" result="hardAlpha"/>
<feOffset/>
<feGaussianBlur stdDeviation="5"/>
<feComposite in2="hardAlpha" operator="out"/>
<feColorMatrix type="matrix" values="0 0 0 0 0.65098 0 0 0 0 0.666667 0 0 0 0 0.709804 0 0 0 0.25 0"/>
<feBlend mode="normal" in2="BackgroundImageFix" result="effect1_dropShadow_441_404"/>
<feBlend mode="normal" in="SourceGraphic" in2="effect1_dropShadow_441_404" result="shape"/>
</filter>
<clipPath id="clip0_441_404">
<rect width="1440" height="3782" fill="white" transform="translate(-1047 -1117)"/>
</clipPath>
<clipPath id="clip1_441_404">
<rect width="48" height="48" fill="white" transform="translate(0.5 -8)"/>
</clipPath>
</defs>
</svg>
