<svg width="48" height="48" viewBox="0 0 48 48" fill="none" xmlns="http://www.w3.org/2000/svg">
<g id="icon - eco world">
<path id="Vector" d="M1.73858 24.3338C1.73583 27.5967 2.50951 30.8134 3.99569 33.7183C5.48188 36.6231 7.63792 39.1326 10.2857 41.0395C12.9334 42.9463 15.9969 44.1958 19.223 44.6847C22.4491 45.1736 25.7452 44.8878 28.8391 43.851C30.2027 44.6298 31.7462 45.0385 33.3166 45.0368C33.8874 45.0387 34.457 44.9837 35.0168 44.8725V44.877C35.6465 45.0169 36.2896 45.087 36.9346 45.0863C38.3341 45.0708 39.7128 44.7447 40.9709 44.1315C42.229 43.5182 43.3352 42.6332 44.2096 41.5403C49.4011 35.5688 45.6863 26.9565 45.5258 26.592C45.463 26.4526 45.3595 26.3355 45.2288 26.2561C45.0981 26.1767 44.9465 26.1388 44.7938 26.1473C44.1186 26.2027 43.4473 26.2994 42.7838 26.4368C43.0694 23.6601 42.7871 20.8544 41.9541 18.1903C41.1211 15.5262 39.7548 13.0594 37.9383 10.94C36.1219 8.82061 33.8932 7.09295 31.3879 5.86211C28.8826 4.63128 26.1531 3.923 23.3655 3.78039C20.5778 3.63777 17.7903 4.06379 15.1725 5.03253C12.5547 6.00126 10.1613 7.49246 8.13802 9.41539C6.11473 11.3383 4.50381 13.6528 3.40327 16.218C2.30273 18.7832 1.73558 21.5455 1.73633 24.3368L1.73858 24.3338ZM3.23858 24.3338C3.23553 20.0746 4.66489 15.9381 7.29683 12.5895C5.84784 15.8233 5.57769 19.4627 6.53333 22.875C7.82408 27.0945 11.6836 28.4573 15.0886 29.6588C18.3713 30.8175 20.3836 31.641 20.3836 33.867C20.3836 35.8673 19.6418 36.024 18.6151 36.2408C18.1952 36.3036 17.7901 36.4413 17.4188 36.6473C16.8358 36.9872 16.1525 37.1132 15.4865 37.0037C14.8205 36.8942 14.2136 36.556 13.7701 36.0473C13.5593 35.8225 13.2977 35.6515 13.0072 35.5487C12.7167 35.4458 12.4058 35.4141 12.1006 35.4563C10.8256 35.6288 9.66233 37.0313 9.00758 37.9853C7.18152 36.2115 5.73003 34.0893 4.73908 31.7444C3.74813 29.3994 3.23789 26.8795 3.23858 24.3338ZM26.8501 40.08C23.2741 35.331 25.6846 28.962 26.4841 27.1673C28.4108 27.5558 34.9966 29.2838 36.7943 34.95C38.1008 39.0698 36.4193 41.7 35.4068 42.825L30.2813 32.8898L28.9486 33.5768L34.0756 43.5158C32.5681 43.6868 29.4496 43.5308 26.8501 40.08ZM43.0778 40.5555C42.3198 41.5146 41.3511 42.2863 40.247 42.8109C39.1428 43.3356 37.9327 43.5991 36.7103 43.581C37.7276 42.3272 38.4019 40.8308 38.6672 39.2382C38.9325 37.6456 38.7797 36.0114 38.2238 34.4955C37.8137 33.2017 37.163 31.9968 36.3061 30.9443C39.1561 28.5683 42.9601 27.8798 44.3498 27.7013C45.0226 29.55 46.9808 36.069 43.0793 40.5555H43.0778ZM41.4061 24.3338C41.4018 25.1616 41.3442 25.9883 41.2336 26.8088C40.2826 27.0781 39.3547 27.423 38.4586 27.84C38.6484 26.1373 38.473 24.4138 37.9441 22.7843C37.7123 21.9848 36.9046 21.9135 36.4223 21.8708C36.2302 21.8664 36.0399 21.8333 35.8576 21.7725C34.0621 20.8725 33.3691 19.434 32.6326 17.9078C32.116 16.5315 31.2313 15.3235 30.0751 14.4158C29.5352 14.0392 28.9242 13.7767 28.2794 13.6444C27.6346 13.5121 26.9696 13.5127 26.3251 13.6463C25.4618 13.7573 25.0591 13.7843 24.5251 13.248C24.2356 12.9578 24.2791 12.7778 24.3001 12.6915C24.4891 11.9175 26.1871 10.9073 27.2251 10.5795C27.4267 10.5289 27.6128 10.4295 27.767 10.2901C27.9212 10.1507 28.0387 9.97553 28.1093 9.78C28.3531 9.06225 27.8461 8.33775 27.3991 7.6995C27.2791 7.52775 27.1118 7.28925 27.0241 7.1295C27.4866 6.78496 27.9928 6.50325 28.5293 6.29175C32.2845 7.58793 35.5424 10.022 37.8502 13.2555C40.158 16.489 41.4009 20.3612 41.4061 24.3338ZM26.4353 5.7C25.9883 5.95393 25.6526 6.36596 25.4941 6.855C25.4846 7.49019 25.7273 8.10323 26.1691 8.55975C26.321 8.76922 26.4621 8.98625 26.5921 9.21C25.5751 9.5745 23.2351 10.719 22.8421 12.336C22.7571 12.6903 22.77 13.061 22.8796 13.4084C22.9891 13.7559 23.191 14.067 23.4638 14.3085C23.8559 14.7021 24.3447 14.9855 24.8811 15.1304C25.4174 15.2752 25.9824 15.2763 26.5193 15.1335C26.9837 15.0245 27.4658 15.015 27.9341 15.1055C28.4024 15.1959 28.8462 15.3844 29.2366 15.6585C30.2116 16.3193 30.7118 17.358 31.2901 18.5603C32.0626 20.1683 32.9401 21.9908 35.1901 23.118C35.5392 23.2706 35.9141 23.3556 36.2948 23.3685C36.3743 23.3753 36.4786 23.3843 36.5618 23.3963C37.1828 25.629 37.2098 27.4995 36.6533 28.8428C36.18 29.1479 35.7266 29.4828 35.2958 29.8455C31.6591 26.3655 26.4458 25.6245 26.1533 25.5863C26.0016 25.5661 25.8473 25.5929 25.7112 25.663C25.5751 25.7332 25.4638 25.8432 25.3921 25.9785C25.2053 26.3303 20.8921 34.662 25.6546 40.983C26.139 41.63 26.6905 42.2238 27.3001 42.7545C24.3482 43.5542 21.2471 43.6309 18.2593 42.9781C15.2715 42.3254 12.485 40.9624 10.1356 39.0045C10.7543 38.0723 11.6641 37.029 12.3038 36.9428C12.3803 36.9323 12.4581 36.9422 12.5296 36.9713C12.601 37.0003 12.6636 37.0477 12.7111 37.1085C13.3933 37.8626 14.3168 38.3557 15.3229 38.5031C16.3291 38.6505 17.3552 38.443 18.2251 37.9163C18.4483 37.8162 18.6843 37.7473 18.9263 37.7115C20.0326 37.4775 21.8843 37.0868 21.8843 33.87C21.8843 30.4695 18.6833 29.3393 15.5888 28.245C12.3676 27.1088 9.03758 25.9328 7.96808 22.437C5.97158 15.912 10.4768 9.7425 11.1428 8.88C13.3211 7.29694 15.8109 6.19479 18.4473 5.64657C21.0837 5.09834 23.8065 5.11656 26.4353 5.7Z" fill="#2A3744"/>
<path id="Vector_2" d="M9.59229 18.15C9.23454 19.7377 9.08079 21.8535 10.388 22.9185C10.7789 23.266 11.2804 23.4635 11.8033 23.4757C12.5888 23.3938 13.3226 23.0452 13.8823 22.488C14.0748 22.3095 14.2886 22.1556 14.519 22.0297C14.744 22.0297 15.509 21.942 15.7318 20.8102C15.9733 19.5802 15.4963 16.8427 14.0225 16.2397C13.2734 15.9708 12.4616 15.9285 11.6885 16.1182C11.1803 16.2184 10.7119 16.4636 10.34 16.8241C9.96799 17.1847 9.70832 17.6451 9.59229 18.15ZM11.984 17.5882C12.4682 17.4626 12.9781 17.4763 13.4548 17.628C13.5583 17.6707 13.8125 17.9205 14.0338 18.5655C14.2636 19.202 14.3407 19.8835 14.2588 20.5552C13.7586 20.6986 13.3022 20.965 12.9313 21.33C12.0448 22.059 11.7913 22.125 11.3383 21.7552C10.7998 21.3165 10.6948 20.0917 11.0585 18.4792C11.1104 18.2572 11.2254 18.0549 11.3896 17.8967C11.5538 17.7385 11.7602 17.6319 11.984 17.5882Z" fill="#2A3744"/>
</g>
</svg>
