<svg width="52" height="52" viewBox="0 0 52 52" fill="none" xmlns="http://www.w3.org/2000/svg">
<g id="Group">
<path id="Vector" d="M44.4163 7.62493C43.2913 6.49994 42.0413 5.45828 40.708 4.54162C39.7496 3.87496 38.458 4.12496 37.7913 5.08328C37.1247 6.04161 37.3747 7.33326 38.333 7.99992C39.458 8.74992 40.4996 9.62492 41.458 10.5832C45.5829 14.7082 47.8329 20.1665 47.8329 25.9998C47.8329 38.0413 38.0413 47.8329 25.9998 47.8329C13.9582 47.8329 4.16663 38.0413 4.16663 25.9998C4.16663 13.9582 13.9582 4.16663 25.9998 4.16663C27.1664 4.16663 28.0831 3.24997 28.0831 2.08331C28.0831 0.916658 27.1664 0 25.9998 0C11.6666 0 0 11.6666 0 25.9998C0 40.333 11.6666 51.9995 25.9998 51.9995C40.333 51.9995 51.9995 40.333 51.9995 25.9998C52.0412 19.0415 49.3329 12.5416 44.4163 7.62493Z" fill="#EA3442"/>
<path id="Vector_2" d="M19.6669 13.1665C17.8753 11.3748 14.9586 11.3748 13.167 13.1665C11.3753 14.9581 11.3753 17.8748 13.167 19.6664L19.5003 25.9997L13.167 32.333C11.3753 34.1246 11.3753 37.0413 13.167 38.8329C14.042 39.7079 15.2503 40.1662 16.4169 40.1662C17.5836 40.1662 18.7503 39.7079 19.6669 38.8329L26.0002 32.4996L32.3335 38.8329C33.2085 39.7079 34.4168 40.1662 35.5834 40.1662C36.7501 40.1662 37.9167 39.7079 38.8334 38.8329C40.625 37.0413 40.625 34.1246 38.8334 32.333L32.5001 25.9997L38.8334 19.6664C40.625 17.8748 40.625 14.9581 38.8334 13.1665C37.0417 11.3748 34.1251 11.3748 32.3335 13.1665L26.0002 19.4998L19.6669 13.1665Z" fill="#EA3442"/>
</g>
</svg>
