<svg width="24" height="27" viewBox="0 0 24 27" fill="none" xmlns="http://www.w3.org/2000/svg">
<g id="icon">
<g id="icon_2">
<path id="Path" d="M15.4338 0.832886C15.2752 0.832886 15.1431 0.967214 15.1431 1.12841V4.8896C15.1431 5.0508 15.2752 5.18512 15.4338 5.18512H17.4422C17.6008 5.18512 17.7329 5.0508 17.7329 4.8896V1.12841C17.7329 0.967214 17.6008 0.832886 17.4422 0.832886C17.4422 0.832886 15.4338 0.832886 15.4338 0.832886Z" fill="#F57F20"/>
<path id="Path_2" d="M8.06034 17.4627C7.90177 17.4627 7.76964 17.3284 7.76964 17.194V12.4388V12.4119C7.76964 12.3582 7.79606 12.2776 7.84892 12.2239L7.98105 12.1164V12.1164L11.2316 9.67164C11.258 9.64478 11.2845 9.64478 11.3373 9.61791L17.7327 4.78209L12.0773 0.214925C11.9187 0.080597 11.6809 0 11.443 0C11.2052 0 10.9938 0.080597 10.8088 0.214925L0.528546 8.54328C0.343555 8.70448 0.237845 8.9194 0.264273 9.13433C0.264273 9.1612 0.264273 9.18806 0.264273 9.21493V17.4627H8.06034V17.4627Z" fill="url(#paint0_linear_1439_2875)"/>
<path id="Path_3" d="M14.8256 17.4626H8.06022V17.4626H0.26416V24.5014C0.26416 25.0119 0.66057 25.4149 1.16269 25.4149H15.1163V17.1671C15.1163 17.3283 14.9842 17.4626 14.8256 17.4626Z" fill="url(#paint1_linear_1439_2875)"/>
<path id="Path_4" d="M17.7328 4.78198L11.3374 9.6178C11.4431 9.59094 11.5752 9.59094 11.6545 9.67153L15.0372 12.2506C15.0901 12.3044 15.1165 12.3581 15.1165 12.4387V12.4656V17.1939V17.1939V25.388H21.7498C22.2519 25.388 22.6483 24.985 22.6483 24.4745V9.18795C22.6483 9.16109 22.6483 9.13422 22.6483 9.10736C22.6747 8.89243 22.5954 8.6775 22.384 8.51631" fill="url(#paint2_linear_1439_2875)"/>
</g>
</g>
<defs>
<linearGradient id="paint0_linear_1439_2875" x1="-8.12372e-07" y1="4.5" x2="0.268956" y2="17.4625" gradientUnits="userSpaceOnUse">
<stop stop-color="#FDC500"/>
<stop offset="1" stop-color="#F58020"/>
</linearGradient>
<linearGradient id="paint1_linear_1439_2875" x1="5.16423" y1="25.4999" x2="15.1163" y2="25.4176" gradientUnits="userSpaceOnUse">
<stop stop-color="#FDC500"/>
<stop offset="1" stop-color="#F58020"/>
</linearGradient>
<linearGradient id="paint2_linear_1439_2875" x1="8.58548" y1="16.3117" x2="23.4231" y2="24.1904" gradientUnits="userSpaceOnUse">
<stop stop-color="#F58020"/>
<stop offset="0.604167" stop-color="#FDC500"/>
</linearGradient>
</defs>
</svg>
