<svg width="24" height="24" viewBox="0 0 24 24" fill="none" xmlns="http://www.w3.org/2000/svg">
<g id="icon - house">
<path id="Vector" d="M13.0605 2.24997C12.7792 1.96876 12.3977 1.81079 12 1.81079C11.6022 1.81079 11.2208 1.96876 10.9395 2.24997L0.968971 12.219C0.899239 12.2887 0.843925 12.3715 0.806186 12.4626C0.768447 12.5537 0.749023 12.6514 0.749023 12.75C0.749023 12.8486 0.768447 12.9462 0.806186 13.0373C0.843925 13.1285 0.899239 13.2112 0.968971 13.281C1.1098 13.4218 1.30081 13.5009 1.49997 13.5009C1.59859 13.5009 1.69624 13.4815 1.78735 13.4438C1.87846 13.406 1.96124 13.3507 2.03097 13.281L2.99997 12.3105V20.25C2.99997 20.8467 3.23702 21.419 3.65898 21.841C4.08094 22.2629 4.65323 22.5 5.24997 22.5H18.75C19.3467 22.5 19.919 22.2629 20.341 21.841C20.7629 21.419 21 20.8467 21 20.25V12.3105L21.969 13.281C22.1098 13.4218 22.3008 13.5009 22.5 13.5009C22.6991 13.5009 22.8901 13.4218 23.031 13.281C23.1718 13.1401 23.2509 12.9491 23.2509 12.75C23.2509 12.5508 23.1718 12.3598 23.031 12.219L19.5 8.68947V3.74997C19.5 3.55106 19.421 3.36029 19.2803 3.21964C19.1396 3.07899 18.9489 2.99997 18.75 2.99997H17.25C17.0511 2.99997 16.8603 3.07899 16.7196 3.21964C16.579 3.36029 16.5 3.55106 16.5 3.74997V5.68947L13.0605 2.24997ZM19.5 10.8105V20.25C19.5 20.4489 19.421 20.6396 19.2803 20.7803C19.1396 20.921 18.9489 21 18.75 21H5.24997C5.05106 21 4.86029 20.921 4.71964 20.7803C4.57899 20.6396 4.49997 20.4489 4.49997 20.25V10.8105L12 3.31047L19.5 10.8105Z" fill="#797878"/>
</g>
</svg>
