<svg width="49" height="48" viewBox="0 0 49 48" fill="none" xmlns="http://www.w3.org/2000/svg">
<g id="icon - effective">
<path id="Vector" d="M19.7932 21.1341H14.5571C14.1429 21.1341 13.8071 21.4699 13.8071 21.8841V37.1923C13.8071 37.6065 14.1429 37.9423 14.5571 37.9423H19.7932C20.2074 37.9423 20.5432 37.6065 20.5432 37.1923V21.8841C20.5432 21.4699 20.2074 21.1341 19.7932 21.1341ZM19.0432 36.4423H15.3071V22.6341H19.0432V36.4423ZM10.0706 26.397H4.83447C4.42029 26.397 4.08447 26.7328 4.08447 27.147V37.1921C4.08447 37.6063 4.42029 37.9421 4.83447 37.9421H10.0706C10.4848 37.9421 10.8206 37.6063 10.8206 37.1921V27.147C10.8206 26.7328 10.4848 26.397 10.0706 26.397ZM9.3206 36.4422H5.58447V27.8971H9.3206V36.4422ZM38.1951 3.4589C33.3191 7.78978 27.9366 11.6455 22.1706 14.932C16.7202 18.0386 10.7852 20.7182 4.53007 22.8965C4.4485 22.925 4.36516 22.9384 4.28341 22.9384C3.9731 22.9384 3.68294 22.7444 3.57513 22.4348C3.43891 22.0437 3.64554 21.6162 4.03675 21.4799C16.7058 17.0678 27.8428 10.6397 37.1696 2.36334L35.0914 2.47622C34.6768 2.49965 34.3244 2.18147 34.3019 1.76793C34.2795 1.35431 34.5965 1.00078 35.0102 0.978372L39.1976 0.751028C39.4216 0.738278 39.6404 0.827997 39.792 0.994122C39.9437 1.16015 40.0128 1.38553 39.9804 1.608L39.3762 5.75794C39.3219 6.13115 39.0014 6.40003 38.635 6.40003C38.599 6.40003 38.5627 6.3975 38.5261 6.39206C38.1162 6.33243 37.8323 5.95181 37.8919 5.54193L38.1951 3.4589ZM39.9883 26.3468V11.4445C39.9883 11.0303 39.6525 10.6945 39.2383 10.6945H34.0021C33.5879 10.6945 33.2521 11.0303 33.2521 11.4445V24.7908C32.21 24.8796 31.2081 25.1109 30.2658 25.4653V16.3882C30.2658 15.9741 29.9299 15.6382 29.5158 15.6382H24.2796C23.8654 15.6382 23.5296 15.9741 23.5296 16.3882V32.4787C23.1635 33.5868 22.9648 34.7703 22.9648 35.9995C22.9649 42.2031 28.0118 47.25 34.2153 47.25C40.4189 47.25 45.4658 42.2031 45.4658 35.9995C45.4658 31.9051 43.2669 28.3149 39.9883 26.3468ZM38.4883 12.1945V25.5928C37.327 25.1142 36.069 24.8243 34.7521 24.7622V12.1945H38.4883ZM25.0297 17.1383H28.7658V26.1601C27.2836 26.9843 26.0058 28.1332 25.0297 29.5107V17.1383ZM34.2153 45.75C28.8389 45.75 24.4649 41.376 24.4649 35.9995C24.4649 30.6231 28.8389 26.2491 34.2153 26.2491C39.5918 26.2491 43.9658 30.6231 43.9658 35.9995C43.9658 41.376 39.5917 45.75 34.2153 45.75ZM34.2154 27.0611C29.2868 27.0611 25.2769 31.0709 25.2769 35.9995C25.2769 40.9282 29.2867 44.9379 34.2154 44.9379C39.1442 44.9379 43.1538 40.9282 43.1538 35.9995C43.1538 31.0709 39.1441 27.0611 34.2154 27.0611ZM34.2154 43.4379C30.1139 43.4379 26.7769 40.1011 26.7769 35.9995C26.7769 31.898 30.1139 28.5611 34.2154 28.5611C38.317 28.5611 41.6538 31.898 41.6538 35.9995C41.6538 40.1011 38.317 43.4379 34.2154 43.4379ZM36.9333 37.5687C36.7944 37.8093 36.5422 37.9438 36.283 37.9438C36.1558 37.9438 36.0269 37.9114 35.9088 37.8432L33.8404 36.649C33.6083 36.5151 33.4654 36.2676 33.4654 35.9995V32.9015C33.4654 32.4873 33.8013 32.1515 34.2154 32.1515C34.6296 32.1515 34.9654 32.4873 34.9654 32.9015V35.5665L36.6588 36.5443C37.0174 36.7514 37.1404 37.21 36.9333 37.5687ZM33.4654 30.1868V29.4801C33.4654 29.0659 33.8013 28.7301 34.2154 28.7301C34.6296 28.7301 34.9654 29.0659 34.9654 29.4801V30.1868C34.9654 30.6009 34.6296 30.9368 34.2154 30.9368C33.8013 30.9368 33.4654 30.6009 33.4654 30.1868ZM37.7953 32.4197C37.5024 32.1267 37.5024 31.652 37.7953 31.359L38.295 30.8593C38.5879 30.5665 39.0627 30.5665 39.3557 30.8593C39.6485 31.1523 39.6485 31.627 39.3557 31.92L38.856 32.4197C38.7095 32.5661 38.5176 32.6393 38.3256 32.6393C38.1336 32.6393 37.9418 32.566 37.7953 32.4197ZM39.3558 40.0793C39.6486 40.3722 39.6485 40.8471 39.3557 41.1399C39.2092 41.2864 39.0173 41.3596 38.8254 41.3596C38.6334 41.3596 38.4415 41.2864 38.2951 41.1398L37.7954 40.6401C37.5025 40.3472 37.5026 39.8723 37.7955 39.5795C38.0884 39.2867 38.5633 39.2868 38.8561 39.5796L39.3558 40.0793ZM30.6353 39.5795C30.9282 39.8723 30.9283 40.3472 30.6354 40.6401L30.1357 41.1398C29.9893 41.2863 29.7973 41.3596 29.6054 41.3596C29.4134 41.3596 29.2216 41.2865 29.0751 41.1399C28.7823 40.8471 28.7822 40.3722 29.075 40.0793L29.5747 39.5796C29.8675 39.2866 30.3423 39.2865 30.6353 39.5795ZM30.6354 31.3589C30.9283 31.6519 30.9283 32.1266 30.6354 32.4196C30.489 32.566 30.2971 32.6393 30.1051 32.6393C29.9131 32.6393 29.7212 32.566 29.5747 32.4196L29.075 31.9199C28.7822 31.6269 28.7822 31.1522 29.075 30.8592C29.368 30.5664 29.8428 30.5664 30.1357 30.8592L30.6354 31.3589ZM41.4849 35.9995C41.4849 36.4137 41.1491 36.7495 40.7349 36.7495H40.0282C39.614 36.7495 39.2782 36.4137 39.2782 35.9995C39.2782 35.5853 39.614 35.2495 40.0282 35.2495H40.7349C41.1491 35.2495 41.4849 35.5853 41.4849 35.9995ZM34.9654 41.8123V42.519C34.9654 42.9332 34.6296 43.269 34.2154 43.269C33.8013 43.269 33.4654 42.9332 33.4654 42.519V41.8123C33.4654 41.3981 33.8013 41.0623 34.2154 41.0623C34.6296 41.0623 34.9654 41.3981 34.9654 41.8123ZM28.4026 36.7495H27.6959C27.2817 36.7495 26.9459 36.4137 26.9459 35.9995C26.9459 35.5853 27.2817 35.2495 27.6959 35.2495H28.4026C28.8168 35.2495 29.1526 35.5853 29.1526 35.9995C29.1526 36.4137 28.8168 36.7495 28.4026 36.7495Z" fill="#2A3744"/>
</g>
</svg>
