<svg width="78" height="14" viewBox="0 0 78 14" fill="none" xmlns="http://www.w3.org/2000/svg">
<path id="Combined Shape" fill-rule="evenodd" clip-rule="evenodd" d="M7.20119 5.77604C6.96334 5.45365 6.61978 5.23872 6.17052 5.13126L6.19695 5.05066C6.8312 4.75514 7.28047 4.13723 7.51831 3.2238L8.25828 0.241709H6.14409L5.45698 2.87455C5.21914 3.81484 4.66416 4.29843 3.76563 4.29843H2.49712V0.214844H0.330078V10.585H2.49712V5.93723H3.87134C4.37346 5.93723 4.76987 6.04469 5.03414 6.28649C5.29842 6.52828 5.50984 6.87753 5.64197 7.38798L6.51408 10.585H8.70754L7.75616 6.98499C7.5976 6.50141 7.4126 6.09843 7.20119 5.77604ZM10.5046 4.11029C11.1124 3.35805 12.0638 3.0088 13.3323 3.0088C14.6008 3.0088 15.5258 3.35805 16.1072 4.08343C16.6886 4.8088 16.9793 5.7491 16.9793 6.87745C16.9793 8.03268 16.6886 8.94611 16.0808 9.67148C15.473 10.3969 14.5216 10.7461 13.2266 10.7461C11.9581 10.7461 11.0332 10.3969 10.4518 9.69835C9.87035 8.99984 9.57965 8.05954 9.57965 6.90432C9.57965 5.77596 9.89678 4.83566 10.5046 4.11029ZM12.1169 8.59684C12.3283 8.99982 12.7247 9.21475 13.3325 9.21475C14.2839 9.21475 14.786 8.43564 14.8124 6.87744C14.8124 5.29236 14.3368 4.51326 13.3589 4.51326C12.3283 4.51326 11.7997 5.29236 11.7997 6.87744C11.7997 7.62967 11.9054 8.19385 12.1169 8.59684ZM22.9256 7.54907L23.6656 5.93713L25.0662 3.16996H27.339V10.5849H25.3041V6.39384H25.2248L24.5906 7.76399L23.507 9.85951H22.2914L21.1814 7.81772L20.4415 6.31324H20.3622V10.5849H18.3273L18.3008 3.16996H20.6265L22.0271 5.85653L22.8463 7.54907H22.9256ZM32.4921 7.60281L32.0692 9.21475L31.9635 9.18788C31.9371 9.10728 31.9107 8.97296 31.8842 8.7849C31.8578 8.69087 31.838 8.59012 31.8182 8.48937C31.7983 8.38863 31.7785 8.28788 31.7521 8.19385C31.73 8.10418 31.7126 8.02387 31.6959 7.94705L31.6959 7.94693L31.6958 7.94681C31.6726 7.8396 31.6507 7.73919 31.62 7.62967C31.5821 7.50149 31.5202 7.26934 31.4314 6.93615L31.4311 6.9351L31.4311 6.93505L31.4311 6.93492L31.431 6.93475C31.3337 6.56975 31.2042 6.0837 31.0386 5.48042C30.7214 4.3252 30.51 3.54609 30.4043 3.14311H28.2901L30.5629 10.3968H31.5142C31.5142 10.3968 31.4614 10.558 31.3821 10.8536C31.2764 11.1491 31.2235 11.3103 31.2235 11.3371C31.0914 11.6864 30.9593 11.9282 30.7743 12.0625C30.5893 12.1968 30.3514 12.2506 30.0079 12.2506C29.8493 12.2506 29.4793 12.1968 28.9508 12.1162L28.6601 13.5401C29.4001 13.7282 30.0343 13.8356 30.5629 13.8356C31.7521 13.8356 32.5713 13.2177 32.9942 11.955L35.9276 3.11624H33.7606C33.6359 3.59771 33.2527 4.93965 32.6108 7.18715L32.4921 7.60281ZM38.9405 5.96399H41.689V3.16996H43.8031V10.5849H41.689V7.38787H38.9405V10.5849H36.7999V3.16996H38.9405V5.96399ZM51.7576 5.58791V9.13418H52.7354L52.8411 10.3431C52.3126 10.5849 51.7048 10.7193 51.0441 10.7193C50.6741 10.7193 50.3834 10.6655 50.1984 10.5312C49.987 10.3969 49.8813 10.1819 49.8549 9.83268L49.8284 9.80582C49.1149 10.4237 48.2956 10.7193 47.2914 10.7193C46.8686 10.7193 46.4986 10.6387 46.1814 10.5043C45.8643 10.3431 45.6265 10.1551 45.4679 9.94015C45.3093 9.69836 45.2036 9.48343 45.1244 9.24164C45.0451 9.02671 45.0186 8.78492 45.0186 8.54313C45.0186 7.79089 45.2565 7.22671 45.7586 6.82373C46.2343 6.42074 46.895 6.20582 47.7142 6.15209C47.8391 6.15209 48.0361 6.13986 48.2972 6.12364C48.423 6.11583 48.5638 6.10709 48.7185 6.09836C48.8732 6.08962 49.0139 6.08088 49.1398 6.07307C49.4009 6.05686 49.5979 6.04462 49.7227 6.04462V5.85657C49.7227 5.39985 49.617 5.07746 49.432 4.86254C49.247 4.67448 48.877 4.56701 48.3749 4.56701C47.5821 4.56701 46.8157 4.70134 46.0493 4.94313C46.007 4.75655 45.9495 4.53929 45.885 4.29546L45.8849 4.29487L45.8848 4.29433C45.8286 4.08206 45.7672 3.84967 45.7058 3.59985C46.6571 3.19686 47.7142 2.98194 48.877 2.98194C49.8284 2.98194 50.5155 3.19686 51.0177 3.59985C51.5198 4.00283 51.7576 4.67448 51.7576 5.58791ZM48.243 9.34904C48.7451 9.34904 49.2473 9.13411 49.7494 8.6774V7.28038L48.2695 7.38785C47.5823 7.46844 47.2388 7.79083 47.2388 8.40874C47.2388 9.02665 47.5823 9.34904 48.243 9.34904ZM54.6119 8.27454C54.8233 7.73723 54.9554 6.77007 55.0083 5.31932L55.0347 3.1432H60.5051V10.5581H58.391V4.59395H56.8846L56.8582 5.37305C56.8318 5.93723 56.8053 6.44768 56.7789 6.8238C56.7525 7.19992 56.6996 7.62977 56.6203 8.05962C56.5411 8.51634 56.4353 8.86559 56.3032 9.16111C56.1711 9.45663 56.0125 9.72529 55.8011 10.0208C55.5897 10.3163 55.3254 10.5313 55.0083 10.7193C54.6911 10.9074 54.3212 11.0417 53.8983 11.1492L53.2641 9.53723C53.9776 9.21484 54.4004 8.81186 54.6119 8.27454ZM67.2704 6.63563C67.8254 6.39384 68.169 5.93713 68.354 5.26548C68.5389 4.67444 68.7239 3.97593 68.9354 3.16996H66.9533C66.9328 3.23241 66.9084 3.31502 66.8784 3.41624L66.8782 3.41696C66.8309 3.57689 66.7699 3.78318 66.689 4.02966C66.6146 4.25673 66.5569 4.4582 66.5066 4.63409C66.4676 4.77036 66.4329 4.89127 66.3983 4.99683C66.2133 5.6416 65.7905 5.99086 65.1298 5.99086H64.1256V3.16996H62.0378V10.5849H64.1256V7.30727H65.1562C65.5262 7.30727 65.8169 7.38787 66.0283 7.5222C66.2662 7.65653 66.4248 7.92519 66.5569 8.32817C66.5701 8.3819 66.6362 8.59679 66.7518 8.97285C66.8674 9.34897 67.0326 9.88632 67.244 10.5849H69.3318L68.5389 7.97892C68.354 7.28041 67.9311 6.85056 67.2704 6.63563ZM77.8677 9.16104H76.9163V5.58791C76.9163 4.67448 76.6785 4.00283 76.1763 3.59985C75.6742 3.19686 74.9871 2.98194 74.0357 2.98194C72.8729 2.98194 71.8158 3.19686 70.8644 3.59985C70.926 3.85011 70.9875 4.08288 71.0437 4.29546C71.1082 4.53929 71.1656 4.75655 71.208 4.94313C71.9744 4.70134 72.7408 4.56701 73.5336 4.56701C74.0622 4.56701 74.4057 4.67448 74.5907 4.86254C74.7757 5.07746 74.8814 5.39985 74.8814 5.85657V6.04462C74.7566 6.04462 74.5595 6.05686 74.2984 6.07307C74.1726 6.08088 74.0319 6.08962 73.8772 6.09836C73.7225 6.10709 73.5817 6.11583 73.4559 6.12364C73.1948 6.13986 72.9977 6.15209 72.8729 6.15209C72.0537 6.20582 71.393 6.42074 70.9173 6.82373C70.4152 7.22671 70.1773 7.79089 70.1773 8.54313C70.1773 8.78492 70.2038 9.02671 70.2831 9.24164C70.3623 9.48343 70.468 9.69836 70.6266 9.94015C70.7852 10.1551 71.023 10.3431 71.3401 10.5043C71.6573 10.6387 72.0273 10.7193 72.4501 10.7193C73.4543 10.7193 74.2736 10.4237 74.9871 9.80582L75.0135 9.83268C75.04 10.1819 75.1457 10.3969 75.3571 10.5312C75.5421 10.6655 75.8328 10.7193 76.2028 10.7193C76.8634 10.7193 77.4713 10.5849 77.9998 10.3431L77.8677 9.16104ZM74.9081 8.6774C74.406 9.13411 73.9039 9.34904 73.4018 9.34904C72.7411 9.34904 72.3975 9.02665 72.3975 8.40874C72.3975 7.79083 72.7411 7.46844 73.4282 7.38785L74.9081 7.28038V8.6774Z" fill="#2A3744"/>
</svg>
