<svg width="120" height="59" viewBox="0 0 120 59" fill="none" xmlns="http://www.w3.org/2000/svg">
<g id="lychilnyk-eng-logo 1" clip-path="url(#clip0_1402_578)">
<path id="Vector" fill-rule="evenodd" clip-rule="evenodd" d="M76.303 21.0146C76.303 30.7726 68.3962 38.6831 58.6429 38.6831C48.8895 38.6831 40.9829 30.7726 40.9829 21.0146C40.9829 11.2565 48.8895 3.34599 58.6429 3.34599C68.3962 3.34599 76.303 11.2565 76.303 21.0146ZM79.0459 21.0146C79.0459 32.2882 69.9108 41.4273 58.6429 41.4273C47.3747 41.4273 38.24 32.2882 38.24 21.0146C38.24 9.74091 47.3747 0.601807 58.6429 0.601807C69.9108 0.601807 79.0459 9.74091 79.0459 21.0146ZM13.9125 1.87889L19.9018 2.16154L25.8912 1.87889V1.12145H28.0459V7.29749H25.8912V6.65657L20.6565 6.36013V7.97996H22.3383V10.1155H25.4041C25.7828 10.1155 26.0898 10.4227 26.0898 10.8015V11.4572C26.0898 11.8361 25.7828 12.1432 25.4041 12.1432H14.3997C14.021 12.1432 13.714 11.8361 13.714 11.4572V10.8015C13.714 10.4227 14.021 10.1155 14.3997 10.1155H17.5518V7.97996H19.2335V6.35524L13.9125 6.65657V7.29749H11.7578V1.12145H13.9125V1.87889ZM0.357157 36.1558H9.61428V25.1791H15.1C15.1 25.1791 16.8143 27.9233 20.2429 27.9233C23.6714 27.9233 25.0429 25.5221 25.0429 25.5221H31.5571V16.2605H24.3571V15.5744H25.3857C25.7644 15.5744 26.0714 15.2672 26.0714 14.8884V14.2023C26.0714 13.8234 25.7644 13.5163 25.3857 13.5163H14.4143C14.0356 13.5163 13.7286 13.8234 13.7286 14.2023V14.8884C13.7286 15.2672 14.0356 15.5744 14.4143 15.5744H15.1V16.2605H5.6248C4.22773 16.2605 2.88789 16.8157 1.90001 17.8041C0.91214 18.7924 0.357157 20.1329 0.357157 21.5306V36.1558ZM116.929 36.1558H107.672V25.1791H102.186C102.186 25.1791 100.472 27.9233 97.0431 27.9233C93.6146 27.9233 92.2431 25.5221 92.2431 25.5221H85.7288V16.2605H92.9288V15.5744H91.9003C91.5211 15.5744 91.2146 15.2672 91.2146 14.8884V14.2023C91.2146 13.8234 91.5211 13.5163 91.9003 13.5163H102.872C103.25 13.5163 103.557 13.8234 103.557 14.2023V14.8884C103.557 15.2672 103.25 15.5744 102.872 15.5744H102.186V16.2605H111.661C113.058 16.2605 114.398 16.8157 115.386 17.8041C116.373 18.7924 116.929 20.1329 116.929 21.5306V36.1558ZM91.8818 12.1432H102.886C103.265 12.1432 103.572 11.8361 103.572 11.4572V10.8015C103.572 10.4227 103.265 10.1155 102.886 10.1155H99.7339V7.97996H98.0518V6.35524L103.373 6.65657V7.29749H105.528V1.12145H103.373V1.87889L97.3839 2.16154L91.3942 1.87889V1.12145H89.2397V7.29749H91.3942V6.65657L96.629 6.36013V7.97996H94.9476V10.1155H91.8818C91.5026 10.1155 91.196 10.4227 91.196 10.8015V11.4572C91.196 11.8361 91.5026 12.1432 91.8818 12.1432ZM46.149 18.1408H42.8435V23.8884H46.149V18.1408ZM47.559 18.1408H50.8645V23.8884H47.559V18.1408ZM55.58 18.1408H52.2746V23.8884H55.58V18.1408ZM60.2956 18.1408V23.8884H56.9901V18.1408H60.2956ZM65.0111 18.1408H61.7057V23.8884H65.0111V18.1408ZM66.4212 18.1408H69.727V23.8884H66.4212V18.1408ZM74.442 18.1408H71.1368V23.8884H74.442V18.1408ZM58.6429 15.8525C60.6051 15.8525 62.2486 14.122 62.2486 12.0998C62.2486 11.6507 62.0598 10.9906 61.7031 10.1949C61.3553 9.41881 60.881 8.58526 60.3853 7.81415C59.8902 7.04385 59.3836 6.35085 58.9784 5.85642C58.8523 5.70259 58.7396 5.5723 58.6429 5.46709C58.5462 5.57226 58.4334 5.70249 58.3073 5.85623C57.902 6.35034 57.3953 7.04262 56.9002 7.81147C56.4045 8.58108 55.9302 9.41236 55.5822 10.1851C55.2253 10.9779 55.0373 11.6323 55.0373 12.074C55.0373 14.1014 56.6858 15.8525 58.6429 15.8525ZM58.6429 16.5385C61.013 16.5385 62.9343 14.471 62.9343 12.0998C62.9343 9.70283 59.1056 4.58418 58.6429 4.58418C58.1803 4.58418 54.3516 9.70283 54.3516 12.074C54.3516 14.4453 56.2729 16.5385 58.6429 16.5385ZM61.1109 12.4013C61.1938 12.2311 61.1231 12.0257 60.9528 11.9427C60.7826 11.8598 60.5774 11.9306 60.4944 12.1009C60.1168 12.8764 59.596 13.3445 59.1728 13.6191C58.9608 13.7566 58.7732 13.8455 58.6411 13.8993C58.5752 13.9262 58.5233 13.9442 58.4895 13.9551L58.4707 13.9611L58.4572 13.9651L58.453 13.9663L58.4463 13.9682C58.263 14.0147 58.1519 14.2011 58.1982 14.3846C58.2446 14.5683 58.431 14.6796 58.6145 14.6332L58.5306 14.3006C58.6145 14.6332 58.6144 14.6333 58.6145 14.6332L58.6152 14.6331L58.616 14.6329L58.6181 14.6324L58.6238 14.6308L58.6413 14.626C58.6557 14.6219 58.6754 14.616 58.6998 14.6081C58.7487 14.5924 58.8167 14.5685 58.8997 14.5347C59.0656 14.4672 59.2924 14.3591 59.5459 14.1947C60.054 13.865 60.6692 13.3084 61.1109 12.4013ZM50.5638 29.2887L50.167 26.131L49.7703 29.2887C49.7165 29.3068 49.6644 29.3285 49.6142 29.3535L47.1018 27.4013L49.0531 29.9148C49.0281 29.9651 49.0064 30.0172 48.9883 30.071L45.8322 30.468L48.9883 30.8649C49.0064 30.9187 49.0281 30.9708 49.0531 31.021L47.1018 33.5346L49.6142 31.5824C49.6644 31.6074 49.7165 31.6291 49.7703 31.6472L50.167 34.8049L50.5638 31.6472C50.6175 31.6291 50.6697 31.6074 50.7199 31.5824L53.2322 33.5346L51.281 31.021C51.3059 30.9708 51.3276 30.9187 51.3457 30.8649L54.5019 30.468L51.3457 30.071C51.3276 30.0172 51.3059 29.9651 51.281 29.9148L53.2322 27.4013L50.7199 29.3535C50.6697 29.3285 50.6175 29.3068 50.5638 29.2887ZM66.7186 32.4536L70.8242 26.3935L64.7666 30.5007C64.0361 30.9961 63.9373 32.0347 64.5613 32.659C65.1854 33.2834 66.2235 33.1846 66.7186 32.4536ZM38.1172 14.251C37.397 16.3735 37.0064 18.6484 37.0064 21.0146C37.0064 23.3807 37.397 25.6555 38.1172 27.7781H32.8428V14.251H38.1172ZM80.2795 21.0146C80.2795 18.6484 79.8886 16.3735 79.1686 14.251H84.4431V27.7781H79.1686C79.8886 25.6555 80.2795 23.3807 80.2795 21.0146ZM110.335 54.9117L108.558 56.7212V58.9352H104.998V55.2648V46.4036H108.558V51.7032L113.855 46.4036H118.688L112.826 52.3741L119.369 58.9375H114.359L110.335 54.9117ZM75.3039 58.9375V46.4059H78.8642L84.3862 52.4923V46.4059H87.9464V58.9375H84.3862V58.9302L78.8642 52.8439V58.9375H75.3039ZM12.8667 46.406V58.9376H16.4266V46.406H12.8667ZM0.17334 55.744V46.406H3.73322V55.744H10.6117V58.9375L3.73322 58.9376H0.17334V55.744ZM62.9709 55.744V46.406H66.5308V55.744H73.4093V58.9375L66.5308 58.9376H62.9709V55.744ZM33.7 58.9376V46.406H37.2599V50.5662H42.3449V46.406H45.9048V58.9376H42.3449V53.7596H37.2599V58.9376H33.7ZM27.3266 51.3498H31.4271C30.8345 48.4627 28.251 46.2896 25.1537 46.2896C21.6183 46.2896 18.7523 49.1209 18.7523 52.6135C18.7523 56.1061 21.6183 58.9375 25.1537 58.9375C28.251 58.9375 30.8345 56.7643 31.4271 53.8772H27.3266C26.9797 55.1876 26.109 56.1169 25.0898 56.1169C23.7656 56.1169 22.6922 54.5484 22.6922 52.6135C22.6922 50.6787 23.7656 49.1102 25.0898 49.1102C26.109 49.1102 26.9797 50.0395 27.3266 51.3498ZM53.8755 58.9375H52.6616V53.1044L48.2409 46.406H52.2452L54.4378 49.9006L56.6305 46.406H60.6348L56.2141 53.1044V58.9375H55.0002H53.8755ZM94.6959 58.9375H95.9103H97.0349H98.2486V53.1044L102.669 46.406H98.6648L96.4726 49.9006L94.2797 46.406H90.2751L94.6959 53.1044V58.9375Z" fill="#2A3744"/>
</g>
<defs>
<clipPath id="clip0_1402_578">
<rect width="120" height="59" fill="white"/>
</clipPath>
</defs>
</svg>
