<svg width="23" height="24" viewBox="0 0 23 24" fill="none" xmlns="http://www.w3.org/2000/svg">
<g id="icon_new-purple + white bg 1" clip-path="url(#clip0_1849_94)">
<g id="Group 65">
<path id="Vector" d="M20.1994 2.07744C19.6375 1.5669 17.2121 0.0429206 12.1513 0.0208455C12.1513 0.0208455 6.15892 -0.372893 3.24983 2.26206C1.63032 3.8607 1.08487 6.23798 1.02426 9.13944C0.963658 12.0409 0.654607 17.5821 5.96104 19.0563C5.96104 19.0563 5.94057 23.1707 5.93776 23.5324C5.93776 23.7852 5.9779 23.9582 6.12239 23.9939C6.22675 24.0192 6.38208 23.9654 6.51493 23.8334C7.36301 22.9813 10.0794 19.7042 10.0794 19.7042C13.7246 19.9422 16.6241 19.2225 16.9359 19.1206C17.6696 18.8854 21.6448 18.5422 22.3194 13.1069C23.019 7.50147 22.0666 3.67607 20.1994 2.07744Z" fill="#2A3744"/>
<path id="Vector_2" d="M14.6495 9.23769C14.5628 9.2377 14.4794 9.20437 14.4166 9.1446C14.3537 9.08483 14.3163 9.00321 14.312 8.9166C14.2546 7.7683 13.7135 7.20598 12.6094 7.14658C12.5214 7.13959 12.4396 7.09849 12.3815 7.03207C12.3234 6.96565 12.2936 6.87915 12.2983 6.79103C12.3031 6.70291 12.3421 6.62013 12.407 6.56036C12.472 6.50059 12.5577 6.46856 12.6459 6.47109C14.1029 6.55136 14.9128 7.38339 14.9875 8.88288C14.9897 8.92726 14.9831 8.97165 14.9682 9.0135C14.9533 9.05535 14.9302 9.09385 14.9004 9.12679C14.8706 9.15974 14.8346 9.18649 14.7944 9.20552C14.7543 9.22455 14.7107 9.23548 14.6664 9.23769H14.6495Z" fill="white"/>
<path id="Vector_3" d="M16.3852 9.82027H16.3772C16.2875 9.81816 16.2023 9.78054 16.1404 9.71566C16.0784 9.65078 16.0448 9.56397 16.0468 9.47429C16.0729 8.31796 15.7426 7.38158 15.037 6.61176C14.3314 5.84194 13.3701 5.42453 12.0886 5.33061C11.9989 5.32406 11.9156 5.28218 11.8568 5.21417C11.7981 5.14616 11.7688 5.0576 11.7753 4.96797C11.7819 4.87834 11.8237 4.79499 11.8918 4.73624C11.9598 4.67749 12.0483 4.64816 12.1379 4.65471C13.58 4.76027 14.7231 5.26478 15.5359 6.15381C16.3487 7.04283 16.7528 8.16745 16.7231 9.48834C16.7213 9.57685 16.685 9.66116 16.6218 9.72319C16.5587 9.78523 16.4737 9.82008 16.3852 9.82027Z" fill="white"/>
<path id="Vector_4" d="M18.1627 10.5149C18.0734 10.5148 17.9878 10.4794 17.9244 10.4165C17.861 10.3536 17.8251 10.2682 17.8243 10.179C17.8087 8.11073 17.2131 6.53096 16.0033 5.35015C14.8081 4.18619 13.2981 3.58896 11.5149 3.57612C11.4704 3.57596 11.4265 3.56705 11.3855 3.5499C11.3445 3.53275 11.3073 3.5077 11.276 3.47616C11.2128 3.41249 11.1774 3.3263 11.1777 3.23656C11.1781 3.14683 11.214 3.06089 11.2777 2.99767C11.3414 2.93444 11.4276 2.8991 11.5173 2.89942H11.5201C13.4836 2.91387 15.1508 3.57531 16.4757 4.8661C17.8006 6.15689 18.4838 7.94617 18.5014 10.1749C18.5021 10.2646 18.4671 10.3509 18.4042 10.4148C18.3413 10.4787 18.2556 10.515 18.1659 10.5157L18.1627 10.5149Z" fill="white"/>
<path id="Vector_5" d="M12.6941 13.4313C12.6941 13.4313 13.1697 13.4715 13.4258 13.156L13.9251 12.5278C14.1659 12.2164 14.747 12.0177 15.3162 12.3348C15.7427 12.578 16.1567 12.8425 16.5568 13.1271C16.9345 13.4048 17.7079 14.0502 17.7103 14.0502C18.0788 14.3613 18.1639 14.818 17.913 15.2997C17.913 15.3025 17.911 15.3073 17.911 15.3097C17.6347 15.7887 17.2839 16.2206 16.8719 16.5893C16.8671 16.5917 16.8671 16.5941 16.8626 16.5965C16.5046 16.8956 16.1529 17.0657 15.8075 17.1066C15.7566 17.1155 15.7049 17.1187 15.6533 17.1162C15.501 17.1177 15.3494 17.0944 15.2046 17.0472L15.1934 17.0308C14.6612 16.8806 13.7725 16.505 12.2927 15.6886C11.4364 15.2217 10.6211 14.6832 9.85562 14.0787C9.47195 13.7759 9.10597 13.4514 8.75949 13.1066L8.72257 13.0697L8.68564 13.0328L8.64872 12.9958C8.63628 12.9838 8.62424 12.9714 8.61179 12.9589C8.26706 12.6124 7.94249 12.2465 7.63969 11.8628C7.03531 11.0974 6.49677 10.2823 6.02982 9.42611C5.21344 7.94587 4.83776 7.05806 4.68765 6.52504L4.6712 6.51381C4.62415 6.36894 4.60097 6.21739 4.60257 6.06508C4.59976 6.01352 4.60285 5.96181 4.6118 5.91096C4.65488 5.56605 4.82519 5.21406 5.12273 4.85497C5.12514 4.85055 5.12755 4.85055 5.12996 4.84574C5.49853 4.43366 5.93047 4.08301 6.40951 3.80701C6.41192 3.80701 6.41673 3.8046 6.41954 3.8046C6.90118 3.55375 7.35793 3.63883 7.66859 4.00528C7.671 4.00769 8.31518 4.78112 8.59172 5.1588C8.87639 5.55926 9.14081 5.97372 9.38402 6.40062C9.7011 6.96935 9.50242 7.55173 9.19096 7.79175L8.56283 8.29105C8.24575 8.54712 8.28749 9.02273 8.28749 9.02273C8.28749 9.02273 9.21785 12.5439 12.6941 13.4313Z" fill="white"/>
</g>
</g>
<defs>
<clipPath id="clip0_1849_94">
<rect width="22.7597" height="24" fill="white"/>
</clipPath>
</defs>
</svg>
