<svg width="24" height="24" viewBox="0 0 24 24" fill="none" xmlns="http://www.w3.org/2000/svg">
<g id="icon - exit" clip-path="url(#clip0_1541_4371)">
<path id="Vector" d="M16.8509 23.1562C16.8509 23.38 16.762 23.5946 16.6038 23.7529C16.4455 23.9111 16.2309 24 16.0071 24H5.12745C4.18981 23.9989 3.29087 23.626 2.62786 22.963C1.96484 22.3 1.59189 21.4011 1.59082 20.4634V3.53662C1.59187 2.59901 1.9648 1.7001 2.62777 1.03708C3.29075 0.374072 4.18964 0.00110419 5.12726 0L16.0069 0C16.2307 0 16.4453 0.0888948 16.6036 0.247129C16.7618 0.405362 16.8507 0.619974 16.8507 0.84375C16.8507 1.06753 16.7618 1.28214 16.6036 1.44037C16.4453 1.59861 16.2307 1.6875 16.0069 1.6875H5.12726C4.63701 1.68805 4.16699 1.88304 3.82033 2.2297C3.47367 2.57636 3.27868 3.04637 3.27813 3.53662V20.4634C3.27869 20.9537 3.47369 21.4237 3.82035 21.7703C4.16701 22.117 4.63702 22.312 5.12726 22.3125H16.0069C16.1178 22.3125 16.2275 22.3343 16.3299 22.3767C16.4323 22.4191 16.5253 22.4812 16.6037 22.5596C16.6821 22.6379 16.7442 22.7309 16.7866 22.8333C16.8291 22.9357 16.8509 23.0454 16.8509 23.1562ZM22.1618 11.4034L16.6774 5.919C16.5189 5.76213 16.3048 5.6744 16.0817 5.67498C15.8587 5.67556 15.645 5.76442 15.4873 5.92212C15.3296 6.07982 15.2408 6.29353 15.2402 6.51655C15.2396 6.73957 15.3274 6.95374 15.4842 7.11225L19.5282 11.1562H9.69354C9.46976 11.1562 9.25515 11.2451 9.09692 11.4034C8.93868 11.5616 8.84979 11.7762 8.84979 12C8.84979 12.2238 8.93868 12.4384 9.09692 12.5966C9.25515 12.7549 9.46976 12.8438 9.69354 12.8438H19.5282L15.4842 16.8878C15.4052 16.966 15.3424 17.059 15.2994 17.1616C15.2565 17.2641 15.2342 17.3741 15.2339 17.4853C15.2337 17.5965 15.2553 17.7066 15.2977 17.8094C15.3402 17.9121 15.4025 18.0055 15.4811 18.0841C15.5597 18.1627 15.653 18.225 15.7558 18.2675C15.8586 18.3099 15.9687 18.3316 16.0799 18.3313C16.191 18.331 16.3011 18.3087 16.4036 18.2658C16.5062 18.2228 16.5992 18.1601 16.6774 18.081L22.1618 12.5967C22.2401 12.5183 22.3023 12.4253 22.3447 12.3229C22.3871 12.2206 22.409 12.1108 22.409 12C22.409 11.8892 22.3871 11.7795 22.3447 11.6771C22.3023 11.5747 22.2402 11.4817 22.1618 11.4034Z" fill="#2A3744"/>
</g>
<defs>
<clipPath id="clip0_1541_4371">
<rect width="24" height="24" fill="white"/>
</clipPath>
</defs>
</svg>
