<svg width="24" height="24" viewBox="0 0 24 24" fill="none" xmlns="http://www.w3.org/2000/svg">
<g id="icon - notification">
<path id="Vector" d="M11.9996 0.75C9.83399 0.774186 7.76635 1.65632 6.25023 3.20292C4.73411 4.74952 3.8933 6.83431 3.91223 9V14.0917C3.91311 14.5372 3.78404 14.9733 3.54083 15.3465L2.62028 16.7579C2.39629 17.1011 2.26932 17.4985 2.25282 17.908C2.23632 18.3175 2.33089 18.7239 2.52653 19.084C2.71274 19.4376 2.99239 19.7332 3.335 19.9388C3.67762 20.1444 4.07007 20.252 4.46963 20.25H8.32553C8.49853 21.0968 8.95869 21.8578 9.62818 22.4043C10.2977 22.9508 11.1354 23.2493 11.9996 23.2493C12.8639 23.2493 13.7016 22.9508 14.3711 22.4043C15.0406 21.8578 15.5007 21.0968 15.6737 20.25H19.5296C19.9292 20.252 20.3216 20.1444 20.6643 19.9388C21.0069 19.7332 21.2865 19.4376 21.4727 19.084C21.6683 18.7241 21.7628 18.3179 21.7463 17.9086C21.7298 17.4993 21.6029 17.1021 21.379 16.7591L20.4584 15.347C20.2152 14.9737 20.0861 14.5377 20.087 14.0922V9C20.1059 6.83431 19.2651 4.74952 17.749 3.20292C16.2329 1.65632 14.1653 0.774186 11.9996 0.75ZM11.9996 21.75C11.5344 21.7494 11.0808 21.605 10.7009 21.3364C10.321 21.0679 10.0335 20.6884 9.87773 20.25H14.1215C13.9658 20.6884 13.6783 21.0679 13.2984 21.3364C12.9185 21.605 12.4648 21.7494 11.9996 21.75ZM20.1221 17.5782C20.1993 17.6947 20.2431 17.83 20.2486 17.9696C20.2542 18.1092 20.2213 18.2477 20.1536 18.3699C20.0946 18.4845 20.0051 18.5806 19.895 18.6476C19.7849 18.7147 19.6585 18.7501 19.5296 18.75H4.46963C4.34073 18.7501 4.2143 18.7147 4.10423 18.6476C3.99415 18.5806 3.90467 18.4845 3.84563 18.3699C3.77796 18.2475 3.74511 18.109 3.75067 17.9693C3.75622 17.8296 3.79996 17.694 3.87713 17.5774L4.79768 16.1653C5.20012 15.5487 5.41386 14.8281 5.41268 14.0917V9C5.39341 7.2321 6.07602 5.52872 7.31081 4.26336C8.5456 2.998 10.2318 2.27396 11.9996 2.25C13.7675 2.27384 15.4538 2.99783 16.6887 4.2632C17.9236 5.52857 18.6063 7.23203 18.587 9V14.0917C18.5858 14.8281 18.7996 15.5487 19.202 16.1653L20.1221 17.5782Z" fill="#2A3744"/>
</g>
</svg>
