<svg width="24" height="24" viewBox="0 0 24 24" fill="none" xmlns="http://www.w3.org/2000/svg">
<g id="icon - location">
<path id="Vector" d="M12 4.82812C9.7125 4.82812 7.85156 6.68906 7.85156 8.97656C7.85156 11.2641 9.7125 13.125 12 13.125C14.2875 13.125 16.1484 11.2641 16.1484 8.97656C16.1484 6.68906 14.2875 4.82812 12 4.82812ZM12 11.625C10.5422 11.625 9.35156 10.4391 9.35156 8.97656C9.35156 7.51406 10.5422 6.32812 12 6.32812C13.4578 6.32812 14.6484 7.51406 14.6484 8.97656C14.6484 10.4391 13.4578 11.625 12 11.625ZM12 0C7.05 0 3.02344 4.02656 3.02344 8.97656C3.02344 10.5891 3.78281 12.6234 5.33906 15.1969C6.63281 17.3344 8.23594 19.4578 9.64688 21.3281C10.2984 22.1906 10.9125 23.0063 11.3859 23.6813C11.5266 23.8828 11.7563 24 12 24C12.2437 24 12.4734 23.8828 12.6141 23.6813C13.0875 23.0063 13.7016 22.1906 14.3531 21.3281C15.7641 19.4578 17.3625 17.3344 18.6609 15.1969C20.2172 12.6234 20.9766 10.5891 20.9766 8.97656C20.9766 4.02656 16.95 0 12 0ZM13.1578 20.4234C12.75 20.9625 12.3562 21.4828 12 21.9656C11.6438 21.4828 11.25 20.9625 10.8422 20.4234C8.175 16.8891 4.52344 12.0469 4.52344 8.97656C4.52344 4.85625 7.87969 1.5 12 1.5C16.1203 1.5 19.4766 4.85156 19.4766 8.97656C19.4766 12.0469 15.825 16.8891 13.1578 20.4234Z" fill="#2A3744"/>
</g>
</svg>
